Coordinates
datacolumns 6
datarows 62
range 0 0.61
inDegrees=yes
Units are S.I. units (second, meters, Newtons, ...)
If the header above contains a line with 'inDegrees', this indicates whether rotational values are in degrees (yes) or radians (no).
endheader
time	foot_tx	hip_flexion_r	knee_angle_r	ankle_angle_r	lumbar
0	0.24352402	57.45048688	-85.77027717	4.79671412	-38.24681942
0.01	0.24348957	57.4985477	-85.77512779	4.80418076	-38.29176388
0.02	0.24348579	57.55489642	-85.77354248	4.80459631	-38.3363409
0.03	0.24346658	57.61724634	-85.77502116	4.80691458	-38.38076878
0.04	0.24344007	57.68344447	-85.777071	4.8094238	-38.42863449
0.05	0.24340108	57.771391	-85.78206804	4.81189328	-38.46139419
0.06	0.24336632	57.83766836	-85.78483439	4.81512229	-38.52379306
0.07	0.24332924	57.90816932	-85.78693145	4.81755114	-38.59029995
0.08	0.24328827	57.98260402	-85.78919442	4.81998567	-38.66104619
0.09	0.24324412	58.06075919	-85.79125842	4.8222988	-38.73640636
0.1	0.24319754	58.14246505	-85.79295966	4.82458289	-38.81670716
0.11	0.24315026	58.2275522	-85.79418175	4.82700178	-38.90218844
0.12	0.24310404	58.31562586	-85.79478102	4.82971251	-38.99344775
0.13	0.24305895	58.40722696	-85.79510619	4.83312843	-39.09019758
0.14	0.24301791	58.50235914	-85.79525265	4.8372956	-39.19296056
0.15	0.24296751	58.56958653	-85.79433952	4.8458561	-39.33541644
0.16	0.24292579	58.67944563	-85.7952551	4.85153063	-39.44614987
0.17	0.24288331	58.77278998	-85.79434571	4.85894102	-39.58761679
0.18	0.2428466	58.89733145	-85.79462122	4.86416635	-39.71198307
0.19	0.24280804	59.02783687	-85.79413442	4.86899145	-39.84708023
0.2	0.24276729	59.13308958	-85.7917931	4.87637052	-40.02560857
0.21	0.24273457	59.28451238	-85.79058032	4.8792992	-40.17517685
0.22	0.24269939	59.44453358	-85.78885377	4.88165777	-40.33522066
0.23	0.24266617	59.61362053	-85.78660605	4.88331144	-40.50527151
0.24	0.24263405	59.7917687	-85.78434491	4.88474093	-40.68533801
0.25	0.24259871	59.98083403	-85.7812709	4.8858853	-40.87431419
0.26	0.24256412	60.18167959	-85.77767603	4.88645929	-41.07090602
0.27	0.24252795	60.39517845	-85.77309866	4.88672333	-41.27501354
0.28	0.24249157	60.62207125	-85.76683326	4.88629295	-41.48653234
0.29	0.24245225	60.8640619	-85.75903924	4.88548653	-41.70380065
0.3	0.2424082	61.17283363	-85.7551496	4.88225605	-41.87283735
0.31	0.24236534	61.43696817	-85.74415412	4.88249032	-42.11086661
0.32	0.2423187	61.77847218	-85.7370352	4.87973445	-42.29003676
0.33	0.24227305	62.10541336	-85.72638939	4.87975487	-42.50728499
0.34	0.24222918	62.40686313	-85.71097804	4.88322831	-42.77460415
0.35	0.24218	62.81034362	-85.70411858	4.88430568	-42.95816534
0.36	0.24213279	63.18897715	-85.69366025	4.88991069	-43.19133988
0.37	0.24208699	63.58425583	-85.68421023	4.89848016	-43.43010725
0.38	0.24204292	63.99603236	-85.67624523	4.91059364	-43.67404811
0.39	0.24200119	64.42487705	-85.67017168	4.92656032	-43.92216095
0.4	0.24196234	64.87305266	-85.66640174	4.94632474	-44.17200226
0.41	0.24192701	65.34508227	-85.66534168	4.96934212	-44.41931122
0.42	0.24189378	65.84908519	-85.66770374	4.99476203	-44.65654432
0.43	0.24186189	66.39356072	-85.67389462	5.02155936	-44.87591705
0.44	0.24183182	66.98422844	-85.68406441	5.04932692	-45.07172759
0.45	0.24180608	67.62233964	-85.69755913	5.07840385	-45.24135588
0.46	0.24177475	68.29645368	-85.71660822	5.11375336	-45.392902
0.47	0.24174717	69.00033796	-85.73853932	5.15596252	-45.52969158
0.48	0.24171902	69.72275812	-85.76365164	5.20824501	-45.66022853
0.49	0.24170116	70.45680593	-85.78979968	5.27021493	-45.79075208
0.5	0.24168377	71.20432335	-85.81893326	5.34359959	-45.91791636
0.51	0.24166827	71.96823945	-85.85131936	5.4282955	-46.03771923
0.52	0.24166288	72.75759282	-85.8873508	5.5235323	-46.1391068
0.53	0.24165095	73.5628294	-85.92989877	5.63364595	-46.22921395
0.54	0.24163414	74.39563793	-85.97863877	5.75759958	-46.29346913
0.55	0.24160264	75.25262907	-86.03389433	5.89709974	-46.33241835
0.56	0.2415588	76.13378948	-86.09319265	6.05142665	-46.34291478
0.57	0.24149035	77.03048076	-86.15759078	6.22387231	-46.3289137
0.58	0.24140931	77.93248958	-86.2204539	6.41178291	-46.2982501
0.59	0.24131809	78.83469714	-86.27907003	6.61466286	-46.25223049
0.6	0.24122558	79.72490997	-86.32946596	6.83141491	-46.20049904
0.61	0.24113961	80.60255231	-86.36721189	7.06002786	-46.14052706
